<?xml version="1.0" encoding="UTF-8"?>
<svg id="_Слой_1" data-name="Слой_1" xmlns="http://www.w3.org/2000/svg" version="1.1" viewBox="0 0 1377.09 600">
  <!-- Generator: Adobe Illustrator 30.5.1, SVG Export Plug-In . SVG Version: 2.1.4 Build 3)  -->
  <defs>
    <style>
      .st0 {
        fill: #f8dad5;
      }

      .st1 {
        fill: #89c6d8;
      }

      .st2 {
        fill: #025b78;
      }
    </style>
  </defs>
  <path class="st0" d="M1156.07,179.28c-48.16,0-87.55,58.21-87.55,129.28,0-71.14-39.39-129.28-87.55-129.28,48.16,0,87.55-58.21,87.55-129.28,0,71.14,39.39,129.28,87.55,129.28Z"/>
  <path class="st1" d="M264.94,408.84c-48.16,0-87.55,58.21-87.55,129.28,0-71.14-39.39-129.28-87.55-129.28,48.16,0,87.55-58.21,87.55-129.28,0,71.14,39.39,129.28,87.55,129.28Z"/>
  <path class="st2" d="M113.29,531.62c-21.92-12.3-39.25-29.21-51.85-50.87-12.67-21.59-18.93-45.91-18.93-72.89s6.33-51.29,18.93-72.89c12.6-21.66,29.93-38.57,51.85-50.87,21.92-12.3,46.56-18.45,73.98-18.45,20.18,0,38.84,3.29,55.82,9.78,17.05,6.57,31.53,16.21,43.5,29l-12.74,13.21c-22.34-22.15-50.95-33.26-85.74-33.26-23.38,0-44.68,5.38-63.82,16-19.14,10.69-34.17,25.44-45.1,44.23-10.93,18.8-16.36,39.83-16.36,63.03s5.43,44.24,16.36,63.1c10.93,18.8,25.89,33.54,45.1,44.24,19.14,10.69,40.44,16,63.82,16,34.59,0,63.12-11.18,85.74-33.61l12.74,13.21c-11.97,12.79-26.52,22.57-43.64,29.21-17.19,6.71-35.7,9.99-55.68,9.99-27.35,0-52.06-6.15-73.98-18.45"/>
  <path class="st2" d="M570.54,267.68v280.29h-19.97v-53.67c-8.77,18.45-21.3,32.28-37.51,41.65-16.22,9.36-35.63,14.05-58.25,14.05-33.27,0-59.3-9.85-78.16-29.63-18.86-19.78-28.33-48.08-28.33-84.91v-167.78h20.32v167.02c0,31.52,7.79,55.49,23.31,71.91,15.52,16.42,37.58,24.6,65.98,24.6s51.92-8.66,68-26c16.08-17.33,24.15-43.26,24.15-77.71v-159.82h20.46Z"/>
  <path class="st2" d="M690.6,422.26c14.34,13.35,35.36,20.06,62.99,20.06h86.93v-156.18h-83.38c-28.19,0-49.9,6.71-65.21,20.2-15.31,13.49-22.97,33.05-22.97,58.7s7.17,43.95,21.51,57.23M860.9,267.68v280.29h-20.32v-88.12h-88.95c-6.89,0-13.43-.42-19.56-1.19l-61.8,89.31h-21.92l64.59-92.87c-20.74-5.87-36.68-16.49-47.88-31.87-11.14-15.37-16.77-34.66-16.77-57.86,0-30.96,9.6-55,28.88-72.12,19.28-17.05,45.38-25.65,78.37-25.65h105.3l.07.07Z"/>
  <path class="st2" d="M1179.59,267.68v280.29h-19.97v-53.67c-8.77,18.45-21.3,32.28-37.51,41.65-16.22,9.36-35.63,14.05-58.25,14.05-33.27,0-59.3-9.85-78.16-29.63-18.86-19.78-28.33-48.08-28.33-84.91v-167.78h20.32v167.02c0,31.52,7.79,55.49,23.32,71.91,15.52,16.42,37.58,24.6,65.98,24.6s51.92-8.66,68-26c16.08-17.33,24.15-43.26,24.15-77.71v-159.82h20.46Z"/>
  <polygon class="st2" points="1266.94 50 1315.24 50 1306.95 407.86 1275.29 407.86 1266.94 50"/>
  <path class="st2" d="M1334.58,485.85c-23.94,0-43.5,28.86-43.5,64.15,0-35.29-19.56-64.15-43.43-64.15,23.87,0,43.43-28.86,43.43-64.15,0,35.29,19.56,64.15,43.5,64.15Z"/>
</svg>